<?xml version="1.0" encoding="utf-8"?>
<!-- Generator: Adobe Illustrator 16.0.0, SVG Export Plug-In . SVG Version: 6.00 Build 0)  -->
<!DOCTYPE svg PUBLIC "-//W3C//DTD SVG 1.1//EN" "http://www.w3.org/Graphics/SVG/1.1/DTD/svg11.dtd">
<svg version="1.1" id="Layer_1" xmlns="http://www.w3.org/2000/svg" xmlns:xlink="http://www.w3.org/1999/xlink" x="0px" y="0px"
	 width="29px" height="28.998px" viewBox="0 0 29 28.998" enable-background="new 0 0 29 28.998" xml:space="preserve">
<path fill="#A8A8A8" d="M14.5,29C6.505,29,0,22.495,0,14.5S6.505,0,14.5,0S29,6.505,29,14.5S22.495,29,14.5,29z M14.5,1
	C7.056,1,1,7.056,1,14.5C1,21.944,7.056,28,14.5,28C21.944,28,28,21.944,28,14.5C28,7.056,21.944,1,14.5,1z"/>
<rect x="7.088" y="14" transform="matrix(0.7071 0.7071 -0.7071 0.7071 14.5 -6.0061)" fill="#A8A8A8" width="14.824" height="1"/>
<rect x="14" y="7.088" transform="matrix(0.7071 0.7071 -0.7071 0.7071 14.5 -6.0061)" fill="#A8A8A8" width="1" height="14.824"/>
</svg>
