<?xml version="1.0" encoding="utf-8"?>
<!-- Generator: Adobe Illustrator 16.0.0, SVG Export Plug-In . SVG Version: 6.00 Build 0)  -->
<!DOCTYPE svg PUBLIC "-//W3C//DTD SVG 1.1//EN" "http://www.w3.org/Graphics/SVG/1.1/DTD/svg11.dtd">
<svg version="1.1" id="Layer_1" xmlns="http://www.w3.org/2000/svg" xmlns:xlink="http://www.w3.org/1999/xlink" x="0px" y="0px"
	 width="29px" height="28.998px" viewBox="0 0 29 28.998" enable-background="new 0 0 29 28.998" xml:space="preserve">
<path fill="#CCCCCC" d="M14.5,29C6.505,29,0,22.495,0,14.5S6.505,0,14.5,0S29,6.505,29,14.5S22.495,29,14.5,29z M14.5,1
	C7.056,1,1,7.056,1,14.5C1,21.944,7.056,28,14.5,28C21.943,28,28,21.944,28,14.5C28,7.056,21.943,1,14.5,1z"/>
<rect x="7.5" y="14.5" fill="#CCCCCC" width="14" height="1"/>
<rect x="7.5" y="10.5" fill="#CCCCCC" width="14" height="1"/>
<rect x="7.5" y="18.5" fill="#CCCCCC" width="14" height="1"/>
</svg>
